<svg width="20" height="20" viewBox="0 0 20 20" fill="none" xmlns="http://www.w3.org/2000/svg">
<g id="location_on">
<mask id="mask0_970_5660" style="mask-type:alpha" maskUnits="userSpaceOnUse" x="0" y="0" width="20" height="20">
<rect id="Bounding box" width="20" height="20" fill="#D9D9D9"/>
</mask>
<g mask="url(#mask0_970_5660)">
<path id="location_on_2" d="M9.99967 16.1248C11.6941 14.5693 12.9511 13.1561 13.7705 11.8853C14.59 10.6144 14.9997 9.48595 14.9997 8.49984C14.9997 6.98595 14.517 5.74637 13.5518 4.78109C12.5865 3.81581 11.4025 3.33317 9.99967 3.33317C8.5969 3.33317 7.41287 3.81581 6.44759 4.78109C5.48231 5.74637 4.99967 6.98595 4.99967 8.49984C4.99967 9.48595 5.4094 10.6144 6.22884 11.8853C7.04829 13.1561 8.30523 14.5693 9.99967 16.1248ZM9.99967 17.7707C9.80523 17.7707 9.61079 17.736 9.41634 17.6665C9.2219 17.5971 9.04829 17.4929 8.89551 17.354C7.99273 16.5207 7.19412 15.7082 6.49967 14.9165C5.80523 14.1248 5.22537 13.3575 4.76009 12.6144C4.29481 11.8714 3.94065 11.1561 3.69759 10.4686C3.45454 9.78109 3.33301 9.12484 3.33301 8.49984C3.33301 6.4165 4.00315 4.75678 5.34342 3.52067C6.6837 2.28456 8.23579 1.6665 9.99967 1.6665C11.7636 1.6665 13.3156 2.28456 14.6559 3.52067C15.9962 4.75678 16.6663 6.4165 16.6663 8.49984C16.6663 9.12484 16.5448 9.78109 16.3018 10.4686C16.0587 11.1561 15.7045 11.8714 15.2393 12.6144C14.774 13.3575 14.1941 14.1248 13.4997 14.9165C12.8052 15.7082 12.0066 16.5207 11.1038 17.354C10.9511 17.4929 10.7775 17.5971 10.583 17.6665C10.3886 17.736 10.1941 17.7707 9.99967 17.7707ZM9.99967 9.99984C10.458 9.99984 10.8504 9.83664 11.1768 9.51025C11.5031 9.18387 11.6663 8.7915 11.6663 8.33317C11.6663 7.87484 11.5031 7.48248 11.1768 7.15609C10.8504 6.8297 10.458 6.6665 9.99967 6.6665C9.54134 6.6665 9.14898 6.8297 8.82259 7.15609C8.4962 7.48248 8.33301 7.87484 8.33301 8.33317C8.33301 8.7915 8.4962 9.18387 8.82259 9.51025C9.14898 9.83664 9.54134 9.99984 9.99967 9.99984Z" fill="#757575"/>
</g>
</g>
</svg>
