<svg xmlns="http://www.w3.org/2000/svg" width="64" height="77" viewBox="0 0 64 77" fill="none">
    <path d="M48 25.6113H16V22.4114C15.9976 13.5749 23.1591 6.40939 31.9956 6.40699C37.8178 6.40534 43.1814 9.56659 46 14.661C46.858 16.2065 48.8065 16.7639 50.352 15.9059C51.8974 15.0479 52.4548 13.0994 51.5968 11.5539C45.6045 0.730994 31.9729 -3.18505 21.1498 2.80729C14.0205 6.75454 9.59729 14.2623 9.59999 22.4115V26.9684C3.7761 29.5101 0.00839999 35.2572 0 41.6115V60.8115C0.01065 69.6436 7.16789 76.8009 16 76.8115H48C56.8321 76.801 63.9893 69.6436 64 60.8115V41.6115C63.9893 32.7791 56.8321 25.6218 48 25.6113ZM35.2 54.4113C35.2 56.1786 33.7674 57.6112 32.0001 57.6112C30.2328 57.6112 28.8001 56.1786 28.8001 54.4113V48.0113C28.8001 46.244 30.2328 44.8113 32.0001 44.8113C33.7674 44.8113 35.2 46.244 35.2 48.0113V54.4113Z" fill="#3259E8"/>
</svg>
