<svg width="175" height="96" viewBox="0 0 175 96" fill="none" xmlns="http://www.w3.org/2000/svg">
<path d="M162.151 96C159.764 96 157.721 95.6643 156.021 94.9931C154.321 94.3218 152.987 93.4029 152.017 92.2364C151.047 91.0699 150.464 89.7494 150.268 88.2748L157.836 87.8456C157.977 88.3628 158.239 88.814 158.62 89.1991C159.013 89.5843 159.519 89.8814 160.14 90.0905C160.772 90.2996 161.513 90.4041 162.363 90.4041C163.704 90.4041 164.81 90.074 165.681 89.4137C166.564 88.7645 167.005 87.6255 167.005 85.9968V81.5399H166.727C166.411 82.3213 165.932 83.0201 165.289 83.6363C164.646 84.2526 163.845 84.7368 162.886 85.0889C161.938 85.4411 160.849 85.6171 159.617 85.6171C157.787 85.6171 156.109 85.188 154.583 84.3296C153.068 83.4602 151.853 82.1177 150.938 80.3019C150.034 78.4752 149.581 76.1257 149.581 73.2535C149.581 70.2932 150.05 67.8557 150.987 65.9409C151.924 64.0151 153.15 62.59 154.665 61.6656C156.19 60.7412 157.83 60.2791 159.585 60.2791C160.903 60.2791 162.031 60.5101 162.968 60.9723C163.916 61.4235 164.695 62.0068 165.305 62.7221C165.916 63.4374 166.379 64.1802 166.695 64.9505H166.924V60.6092H174.884V86.0628C174.884 88.2087 174.35 90.019 173.282 91.4936C172.214 92.9682 170.721 94.0852 168.803 94.8445C166.885 95.6148 164.668 96 162.151 96ZM162.396 79.7407C163.366 79.7407 164.194 79.4821 164.88 78.9649C165.567 78.4476 166.095 77.7048 166.466 76.7364C166.836 75.768 167.022 74.607 167.022 73.2535C167.022 71.8779 166.836 70.6949 166.466 69.7045C166.106 68.7031 165.578 67.9328 164.88 67.3935C164.194 66.8543 163.366 66.5847 162.396 66.5847C161.404 66.5847 160.565 66.8598 159.879 67.41C159.192 67.9603 158.669 68.7361 158.31 69.7375C157.961 70.7279 157.787 71.8999 157.787 73.2535C157.787 74.607 157.966 75.768 158.326 76.7364C158.686 77.7048 159.203 78.4476 159.879 78.9649C160.565 79.4821 161.404 79.7407 162.396 79.7407Z" fill="#191919"/>
<path d="M127.917 71.6618V86.3256H119.814V60.6138H127.519V65.3344H127.801C128.364 63.7608 129.326 62.5277 130.684 61.6349C132.043 60.731 133.662 60.2791 135.54 60.2791C137.329 60.2791 138.881 60.6864 140.196 61.501C141.522 62.3045 142.549 63.4316 143.278 64.8824C144.018 66.322 144.383 68.0071 144.372 69.9377V86.3256H136.269V71.5447C136.28 70.1162 135.921 69.0003 135.192 68.1968C134.474 67.3933 133.474 66.9916 132.192 66.9916C131.342 66.9916 130.59 67.1813 129.939 67.5607C129.298 67.929 128.801 68.459 128.447 69.1509C128.105 69.8428 127.928 70.6798 127.917 71.6618Z" fill="#191919"/>
<path d="M106.516 85.5814V60.436H114.49V85.5814H106.516ZM110.512 55.2731C109.392 55.2731 108.43 54.902 107.625 54.1599C106.821 53.4068 106.419 52.501 106.419 51.4423C106.419 50.3946 106.821 49.4997 107.625 48.7575C108.43 48.0045 109.392 47.6279 110.512 47.6279C111.642 47.6279 112.604 48.0045 113.398 48.7575C114.202 49.4997 114.605 50.3946 114.605 51.4423C114.605 52.501 114.202 53.4068 113.398 54.1599C112.604 54.902 111.642 55.2731 110.512 55.2731Z" fill="#191919"/>
<path d="M87.0697 86.3256V60.6304H94.9569V65.3144H95.2225C95.6875 63.6192 96.4457 62.359 97.4974 61.5337C98.549 60.6973 99.7722 60.2791 101.167 60.2791C101.543 60.2791 101.931 60.3069 102.329 60.3627C102.728 60.4073 103.099 60.4798 103.442 60.5802V67.6898C103.054 67.556 102.545 67.4501 101.914 67.372C101.294 67.2939 100.741 67.2549 100.254 67.2549C99.2907 67.2549 98.4217 67.4724 97.6468 67.9073C96.883 68.3311 96.2797 68.9278 95.8369 69.6973C95.4052 70.4556 95.1893 71.3478 95.1893 72.3739V86.3256H87.0697Z" fill="#191919"/>
<path d="M67.7219 86.3256C66.1331 86.3256 64.7226 86.0567 63.4905 85.5188C62.2692 84.97 61.3019 84.1468 60.5886 83.0492C59.886 81.9406 59.5348 80.5521 59.5348 78.8837C59.5348 77.4788 59.778 76.2933 60.2643 75.3274C60.7507 74.3615 61.4208 73.5767 62.2746 72.973C63.1285 72.3693 64.112 71.9138 65.2252 71.6065C66.3385 71.2882 67.5273 71.0741 68.7919 70.9644C70.2077 70.8327 71.348 70.6955 72.2126 70.5528C73.0773 70.3991 73.7041 70.1851 74.0932 69.9107C74.4931 69.6253 74.6931 69.2247 74.6931 68.7088V68.6264C74.6931 67.7813 74.4067 67.1282 73.8338 66.6672C73.261 66.2062 72.4882 65.9757 71.5155 65.9757C70.4671 65.9757 69.6241 66.2062 68.9864 66.6672C68.3487 67.1282 67.9435 67.7648 67.7705 68.5771L60.4589 68.3136C60.675 66.777 61.2317 65.4049 62.1287 64.1976C63.0366 62.9792 64.2795 62.0243 65.8575 61.3328C67.4463 60.6303 69.3539 60.2791 71.5804 60.2791C73.1691 60.2791 74.6336 60.4711 75.9738 60.8553C77.314 61.2285 78.4813 61.7773 79.4756 62.5017C80.47 63.2152 81.2373 64.0933 81.7777 65.136C82.329 66.1788 82.6046 67.3697 82.6046 68.7088V85.8975H75.147V82.3741H74.9525C74.5093 83.2303 73.9419 83.9547 73.2502 84.5474C72.5693 85.1401 71.7641 85.5847 70.8346 85.881C69.9159 86.1774 68.8783 86.3256 67.7219 86.3256ZM70.1699 81.057C71.0237 81.057 71.7911 80.8814 72.472 80.5301C73.1637 80.1789 73.7149 79.6959 74.1256 79.0813C74.5364 78.4556 74.7417 77.7312 74.7417 76.908V74.5042C74.5147 74.6249 74.2391 74.7347 73.9149 74.8335C73.6015 74.9323 73.2556 75.0256 72.8773 75.1134C72.499 75.2012 72.1099 75.278 71.71 75.3439C71.3102 75.4097 70.9265 75.4701 70.559 75.525C69.8132 75.6457 69.1756 75.8323 68.646 76.0848C68.1272 76.3372 67.7273 76.6665 67.4463 77.0726C67.1761 77.4678 67.041 77.9398 67.041 78.4886C67.041 79.3228 67.3328 79.9594 67.9164 80.3984C68.5109 80.8375 69.262 81.057 70.1699 81.057Z" fill="#191919"/>
<path d="M39.3425 71.6831V86.3255H31.2558V52.093H39.0779V65.3648H39.3591C39.9324 63.7824 40.8695 62.5455 42.1704 61.654C43.4824 60.7626 45.0865 60.3168 46.9828 60.3168C48.7688 60.3168 50.3233 60.718 51.6463 61.5203C52.9693 62.3115 53.9946 63.4314 54.7222 64.8801C55.4609 66.3287 55.8247 68.0225 55.8137 69.9614V86.3255H47.727V71.5661C47.738 70.1397 47.3852 69.0254 46.6686 68.2231C45.952 67.4207 44.9432 67.0196 43.6422 67.0196C42.7933 67.0196 42.0436 67.209 41.3932 67.5879C40.7537 67.9556 40.2521 68.4849 39.8883 69.1758C39.5355 69.8667 39.3536 70.7025 39.3425 71.6831Z" fill="#191919"/>
<path d="M19.248 62.0316C19.138 60.8113 18.6482 59.8628 17.7788 59.1862C16.9204 58.4984 15.6933 58.1545 14.0976 58.1545C13.0411 58.1545 12.1607 58.2932 11.4564 58.5705C10.752 58.8478 10.2238 59.2305 9.87162 59.7186C9.51945 60.1956 9.33787 60.7448 9.32686 61.366C9.30485 61.8763 9.4039 62.3255 9.624 62.7138C9.85511 63.1021 10.1853 63.4459 10.6145 63.7455C11.0547 64.0339 11.5829 64.289 12.1992 64.5109C12.8155 64.7328 13.5088 64.9269 14.2792 65.0933L17.1845 65.7589C18.8573 66.1249 20.332 66.613 21.6086 67.2232C22.8962 67.8333 23.9747 68.5599 24.8441 69.403C25.7245 70.2461 26.3903 71.2167 26.8416 72.3149C27.2928 73.4131 27.5239 74.6445 27.5349 76.009C27.5239 78.161 26.9846 80.008 25.9171 81.55C24.8496 83.0919 23.3144 84.2734 21.3115 85.0942C19.3195 85.9151 16.9149 86.3256 14.0976 86.3256C11.2693 86.3256 8.80412 85.8985 6.70214 85.0443C4.60015 84.1902 2.96589 82.8923 1.79934 81.1506C0.632796 79.409 0.0330154 77.207 0 74.5447H7.82466C7.89069 75.6429 8.18233 76.5581 8.69957 77.2902C9.21681 78.0224 9.92665 78.577 10.8291 78.9542C11.7425 79.3314 12.799 79.5199 13.9986 79.5199C15.0991 79.5199 16.0345 79.3702 16.8049 79.0707C17.5862 78.7711 18.186 78.3552 18.6042 77.8227C19.0224 77.2902 19.237 76.6801 19.248 75.9923C19.237 75.3489 19.0389 74.7998 18.6537 74.345C18.2685 73.8791 17.6743 73.4797 16.8709 73.1469C16.0785 72.803 15.0661 72.4869 13.8335 72.1984L10.3008 71.3665C7.37345 70.6898 5.06787 69.5971 3.38408 68.0884C1.7003 66.5687 0.863904 64.5164 0.874909 61.9317C0.863904 59.824 1.42517 57.977 2.5587 56.3907C3.69223 54.8044 5.26046 53.5675 7.2634 52.68C9.26634 51.7926 11.5499 51.3488 14.1141 51.3488C16.7333 51.3488 19.0059 51.7981 20.9318 52.6967C22.8687 53.5841 24.3709 54.8321 25.4384 56.4406C26.5059 58.0491 27.0507 59.9128 27.0727 62.0316H19.248Z" fill="#191919"/>
<path d="M157.848 42.4186C154.133 42.4186 150.932 41.7267 148.243 40.3429C145.57 38.9445 143.509 36.9424 142.059 34.3368C140.624 31.7165 139.907 28.581 139.907 24.9302C139.907 21.4266 140.632 18.3647 142.082 15.7444C143.531 13.1241 145.578 11.0852 148.221 9.62788C150.864 8.17052 153.982 7.44183 157.577 7.44183C160.204 7.44183 162.583 7.8393 164.712 8.63422C166.842 9.42915 168.662 10.5847 170.172 12.101C171.682 13.6025 172.845 15.4279 173.66 17.5771C174.476 19.7264 174.884 22.148 174.884 24.8419V27.6683H143.803V20.9556H163.376C163.361 19.984 163.104 19.1302 162.606 18.3941C162.122 17.6434 161.465 17.0619 160.635 16.6497C159.819 16.2228 158.89 16.0094 157.848 16.0094C156.837 16.0094 155.908 16.2228 155.062 16.6497C154.216 17.0619 153.537 17.636 153.023 18.3721C152.525 19.1081 152.261 19.9693 152.23 20.9556V28.1982C152.23 29.2876 152.464 30.2592 152.933 31.113C153.401 31.9668 154.073 32.6366 154.949 33.1224C155.825 33.6082 156.882 33.851 158.12 33.851C158.981 33.851 159.766 33.7333 160.476 33.4977C161.201 33.2622 161.82 32.9236 162.334 32.482C162.847 32.0257 163.225 31.481 163.466 30.848H174.884C174.491 33.2033 173.562 35.2495 172.097 36.9866C170.632 38.7089 168.692 40.0485 166.275 41.0054C163.874 41.9475 161.065 42.4186 157.848 42.4186Z" fill="#191919"/>
<path d="M84.093 42.4186V7.8914H95.5815V14.4552H95.9323C96.6339 12.2972 97.8325 10.5888 99.528 9.33004C101.223 8.07123 103.241 7.44183 105.579 7.44183C107.947 7.44183 109.986 8.08622 111.696 9.37499C113.406 10.6488 114.437 12.3422 114.788 14.4552H115.138C115.708 12.3422 116.922 10.6488 118.778 9.37499C120.634 8.08622 122.812 7.44183 125.311 7.44183C128.542 7.44183 131.158 8.50582 133.16 10.6338C135.178 12.7618 136.186 15.5941 136.186 19.1307V42.4186H124.084V22.2777C124.084 20.7642 123.711 19.5803 122.965 18.7261C122.22 17.8569 121.219 17.4223 119.962 17.4223C118.719 17.4223 117.733 17.8569 117.002 18.7261C116.286 19.5803 115.928 20.7642 115.928 22.2777V42.4186H104.351V22.2777C104.351 20.7642 103.979 19.5803 103.233 18.7261C102.488 17.8569 101.487 17.4223 100.23 17.4223C99.3964 17.4223 98.6802 17.6172 98.081 18.0068C97.4817 18.3964 97.014 18.9584 96.6778 19.6927C96.3562 20.412 96.1954 21.2737 96.1954 22.2777V42.4186H84.093Z" fill="#191919"/>
<path d="M62.8836 42.4186C59.2219 42.4186 56.0874 41.6899 53.4803 40.2325C50.8731 38.7605 48.8738 36.7143 47.4824 34.0939C46.0909 31.4589 45.3952 28.4043 45.3952 24.9302C45.3952 21.4561 46.0909 18.4089 47.4824 15.7886C48.8738 13.1535 50.8731 11.1073 53.4803 9.64996C56.0874 8.17788 59.2219 7.44183 62.8836 7.44183C66.5453 7.44183 69.6797 8.17788 72.2869 9.64996C74.894 11.1073 76.8933 13.1535 78.2848 15.7886C79.6762 18.4089 80.3719 21.4561 80.3719 24.9302C80.3719 28.4043 79.6762 31.4589 78.2848 34.0939C76.8933 36.7143 74.894 38.7605 72.2869 40.2325C69.6797 41.6899 66.5453 42.4186 62.8836 42.4186ZM62.9715 33.4094C63.9967 33.4094 64.8829 33.0635 65.6299 32.3716C66.3769 31.6797 66.9554 30.6934 67.3655 29.4127C67.7756 28.132 67.9807 26.6084 67.9807 24.8419C67.9807 23.0607 67.7756 21.5371 67.3655 20.2711C66.9554 18.9903 66.3769 18.004 65.6299 17.3122C64.8829 16.6203 63.9967 16.2743 62.9715 16.2743C61.8876 16.2743 60.9575 16.6203 60.1812 17.3122C59.4049 18.004 58.8117 18.9903 58.4016 20.2711C57.9915 21.5371 57.7865 23.0607 57.7865 24.8419C57.7865 26.6084 57.9915 28.132 58.4016 29.4127C58.8117 30.6934 59.4049 31.6797 60.1812 32.3716C60.9575 33.0635 61.8876 33.4094 62.9715 33.4094Z" fill="#191919"/>
<path fill-rule="evenodd" clip-rule="evenodd" d="M0 0V42.4186H12.4081V30.3256H7.99731L21.2092 23.0698L34.4212 30.3256H30.0105V42.4186H42.4186V0H30.0105V18.1276H12.4081V0H0Z" fill="#191919"/>
</svg>
