<svg width="32" height="32" viewBox="0 0 32 32" fill="none" xmlns="http://www.w3.org/2000/svg">
<path d="M22.1176 17.28C22.1176 16.5731 22.7338 16 23.494 16H29.3434C30.1036 16 30.7198 16.5731 30.7198 17.28V30.72C30.7198 31.4269 30.1036 32 29.3434 32H23.494C22.7338 32 22.1176 31.4269 22.1176 30.72V17.28Z" fill="black"/>
<path d="M12.7594 0.910479L1.92739 11.8183C1.50916 12.2799 1.27979 12.8641 1.27979 13.4678V30.72C1.27979 31.4269 1.896 32 2.65613 32H13.5155C14.2756 32 14.8918 31.4269 14.8918 30.72V13.4678C14.8918 12.8641 15.1212 12.2799 15.5394 11.8183L25.2894 2.10476C26.0436 1.27236 25.4073 0 24.2369 0H14.8645C14.0528 0 13.2824 0.333182 12.7594 0.910479Z" fill="black"/>
</svg>
