<svg xmlns="http://www.w3.org/2000/svg" width="65" height="64" viewBox="0 0 65 64" fill="none">
    <path fill-rule="evenodd" clip-rule="evenodd" d="M19.5972 29.3333H45.4028C46.8085 29.3333 48.0212 29.3332 49.0201 29.4148C50.0743 29.501 51.1229 29.6911 52.1319 30.2053C53.6372 30.9723 54.8611 32.1961 55.6281 33.7014C56.1422 34.7104 56.3323 35.759 56.4185 36.8132C56.5001 37.8121 56.5001 39.0248 56.5 40.4305V44.9028C56.5001 46.3085 56.5001 47.5212 56.4185 48.5201C56.3323 49.5743 56.1422 50.6229 55.6281 51.6319C54.8611 53.1372 53.6372 54.3611 52.1319 55.128C51.1229 55.6422 50.0743 55.8323 49.0201 55.9185C48.0212 56.0001 46.8085 56 45.4027 56H19.5973C18.1915 56 16.9788 56.0001 15.9799 55.9185C14.9257 55.8323 13.8771 55.6422 12.8681 55.128C11.3628 54.3611 10.1389 53.1372 9.37195 51.6319C8.85784 50.6229 8.66766 49.5743 8.58152 48.5201C8.49991 47.5212 8.49995 46.3085 8.5 44.9028V40.4305C8.49995 39.0248 8.49991 37.8121 8.58152 36.8132C8.66766 35.759 8.85784 34.7104 9.37195 33.7014C10.1389 32.1961 11.3628 30.9723 12.8681 30.2053C13.8771 29.6911 14.9257 29.501 15.9799 29.4148C16.9788 29.3332 18.1915 29.3333 19.5972 29.3333ZM16.4142 34.7305C15.6898 34.7896 15.4212 34.8901 15.2894 34.9573C14.7876 35.213 14.3796 35.6209 14.124 36.1227C14.0568 36.2545 13.9563 36.5231 13.8971 37.2475C13.8354 38.0031 13.8333 38.9958 13.8333 40.5333V44.8C13.8333 46.3375 13.8354 47.3302 13.8971 48.0858C13.9563 48.8102 14.0568 49.0788 14.124 49.2106C14.3796 49.7124 14.7876 50.1203 15.2894 50.376C15.4212 50.4432 15.6898 50.5437 16.4142 50.6028C17.1698 50.6646 18.1625 50.6667 19.7 50.6667H45.3C46.8375 50.6667 47.8302 50.6646 48.5858 50.6028C49.3102 50.5437 49.5788 50.4432 49.7106 50.376C50.2124 50.1203 50.6204 49.7124 50.876 49.2106C50.9432 49.0788 51.0437 48.8102 51.1029 48.0858C51.1646 47.3302 51.1667 46.3375 51.1667 44.8V40.5333C51.1667 38.9958 51.1646 38.0031 51.1029 37.2475C51.0437 36.5231 50.9432 36.2545 50.876 36.1227C50.6204 35.6209 50.2124 35.213 49.7106 34.9573C49.5788 34.8901 49.3102 34.7896 48.5858 34.7305C47.8302 34.6687 46.8375 34.6667 45.3 34.6667H19.7C18.1625 34.6667 17.1698 34.6687 16.4142 34.7305Z" fill="#3259E8"/>
    <path d="M13.833 21.3334C13.833 19.8606 15.0269 18.6667 16.4997 18.6667H48.4997C49.9724 18.6667 51.1663 19.8606 51.1663 21.3334C51.1663 22.8061 49.9724 24 48.4997 24H16.4997C15.0269 24 13.833 22.8061 13.833 21.3334Z" fill="#3259E8"/>
    <path d="M19.167 10.6667C19.167 9.19391 20.3609 8 21.8337 8H43.167C44.6397 8 45.8337 9.19391 45.8337 10.6667C45.8337 12.1394 44.6397 13.3333 43.167 13.3333H21.8337C20.3609 13.3333 19.167 12.1394 19.167 10.6667Z" fill="#3259E8"/>
</svg>
